<svg width="246" height="50" viewBox="0 0 246 50" fill="none" xmlns="http://www.w3.org/2000/svg">
<g clip-path="url(#clip0_321_141)">
<path d="M23.3644 0.0390775C23.257 0.0488421 22.9152 0.0830185 22.6077 0.10743C15.5136 0.747016 8.86877 4.57477 4.66019 10.458C2.31667 13.7291 0.817794 17.4397 0.251443 21.37C0.0512671 22.7419 0.0268555 23.1472 0.0268555 25.0073C0.0268555 26.8675 0.0512671 27.2727 0.251443 28.6447C1.60873 38.0237 8.28289 45.9037 17.3347 48.8234C18.9557 49.3458 20.6645 49.7022 22.6077 49.917C23.3644 50 26.6356 50 27.3923 49.917C30.7465 49.546 33.588 48.716 36.3905 47.2854C36.8201 47.0657 36.9031 47.0071 36.8445 46.9583C36.8055 46.929 34.9746 44.4732 32.7776 41.5048L28.7838 36.1098L23.7794 28.7033C21.0258 24.6314 18.7604 21.3017 18.7408 21.3017C18.7213 21.2968 18.7018 24.5875 18.692 28.6056C18.6774 35.6411 18.6725 35.9242 18.5846 36.0902C18.4577 36.3295 18.36 36.4271 18.155 36.5345C17.9987 36.6127 17.862 36.6273 17.1248 36.6273H16.2802L16.0556 36.4857C15.9091 36.393 15.8017 36.2709 15.7284 36.1293L15.6259 35.9096L15.6357 26.1205L15.6503 16.3266L15.8017 16.1361C15.8798 16.0336 16.0458 15.9018 16.163 15.8383C16.3632 15.7407 16.4413 15.7309 17.2859 15.7309C18.2819 15.7309 18.4479 15.77 18.7067 16.0531C18.7799 16.1313 21.4896 20.2129 24.7315 25.1294C27.9733 30.0459 32.4065 36.7591 34.584 40.0547L38.5387 46.0453L38.7389 45.9135C40.5112 44.7613 42.386 43.1208 43.8702 41.412C47.0291 37.7844 49.065 33.361 49.7486 28.6447C49.9487 27.2727 49.9731 26.8675 49.9731 25.0073C49.9731 23.1472 49.9487 22.7419 49.7486 21.37C48.3913 11.991 41.7171 4.11095 32.6653 1.19131C31.0687 0.673781 29.3697 0.317371 27.4656 0.102548C26.9969 0.0537245 23.7697 1.87802e-05 23.3644 0.0390775ZM33.588 15.145C33.8224 15.2622 34.0128 15.4868 34.0811 15.7211C34.1202 15.8481 34.13 18.5627 34.1202 24.6802L34.1056 33.4587L32.5579 31.0859L31.0053 28.713V22.3318C31.0053 18.2062 31.0248 15.8871 31.0541 15.7748C31.1322 15.5014 31.3031 15.2866 31.5375 15.1597C31.7376 15.0571 31.8109 15.0474 32.5774 15.0474C33.3 15.0474 33.4269 15.0571 33.588 15.145Z" fill="white"/>
<path d="M38.2946 46.1528C38.1237 46.2602 38.07 46.3335 38.2213 46.2505C38.3288 46.187 38.5045 46.0552 38.4752 46.0503C38.4606 46.0503 38.3776 46.0991 38.2946 46.1528ZM37.9577 46.3725C37.8698 46.4409 37.8698 46.4458 37.9772 46.3921C38.0358 46.3628 38.0846 46.3286 38.0846 46.3188C38.0846 46.2798 38.0602 46.2895 37.9577 46.3725ZM37.7136 46.519C37.6257 46.5873 37.6257 46.5922 37.7331 46.5385C37.7917 46.5092 37.8405 46.4751 37.8405 46.4653C37.8405 46.4262 37.8161 46.436 37.7136 46.519ZM37.4695 46.6655C37.3816 46.7338 37.3816 46.7387 37.489 46.685C37.5476 46.6557 37.5964 46.6215 37.5964 46.6118C37.5964 46.5727 37.572 46.5825 37.4695 46.6655ZM37.0984 46.8608C36.9129 46.9584 36.9226 46.9975 37.1082 46.9047C37.1912 46.8608 37.2546 46.8168 37.2546 46.8071C37.2546 46.7729 37.2498 46.7778 37.0984 46.8608Z" fill="white"/>
</g>
<path d="M62.972 26V13.148H65.996L69.866 23.642H69.92C69.896 23.246 69.872 22.868 69.848 22.508C69.836 22.136 69.824 21.788 69.812 21.464C69.8 21.14 69.788 20.834 69.776 20.546C69.776 20.246 69.776 19.976 69.776 19.736V13.148H71.828V26H68.858L64.88 15.272H64.808C64.832 15.668 64.856 16.058 64.88 16.442C64.916 16.814 64.94 17.174 64.952 17.522C64.976 17.87 64.994 18.194 65.006 18.494C65.018 18.794 65.024 19.064 65.024 19.304V26H62.972ZM79.021 26.18C77.905 26.18 76.957 25.988 76.177 25.604C75.397 25.208 74.797 24.632 74.377 23.876C73.969 23.12 73.765 22.196 73.765 21.104C73.765 20.072 73.945 19.178 74.305 18.422C74.677 17.666 75.211 17.084 75.907 16.676C76.603 16.268 77.425 16.064 78.373 16.064C79.273 16.064 80.035 16.25 80.659 16.622C81.295 16.982 81.781 17.504 82.117 18.188C82.453 18.86 82.621 19.67 82.621 20.618V21.698H75.961C75.985 22.322 76.135 22.832 76.411 23.228C76.687 23.612 77.065 23.894 77.545 24.074C78.025 24.254 78.559 24.344 79.147 24.344C79.639 24.344 80.143 24.284 80.659 24.164C81.175 24.032 81.715 23.852 82.279 23.624V25.478C81.739 25.742 81.193 25.922 80.641 26.018C80.089 26.126 79.549 26.18 79.021 26.18ZM80.551 20.114C80.551 19.622 80.455 19.208 80.263 18.872C80.083 18.524 79.837 18.26 79.525 18.08C79.213 17.888 78.841 17.792 78.409 17.792C77.761 17.792 77.221 17.996 76.789 18.404C76.357 18.812 76.099 19.382 76.015 20.114H80.551ZM84.1079 26L87.6539 21.032L84.2879 16.244H86.9159L89.0039 19.538L91.1459 16.244H93.7919L90.3719 21.032L93.8459 26H91.2179L89.0219 22.544L86.7539 26H84.1079ZM101.489 26.18C100.709 26.18 100.037 26.072 99.4729 25.856C98.9209 25.628 98.4949 25.268 98.1949 24.776C97.8949 24.272 97.7449 23.606 97.7449 22.778V18.098H95.3509V16.658L97.8709 16.226L98.2669 13.742H99.9769V16.244H103.703V18.098H99.9769V22.508C99.9769 22.976 100.049 23.342 100.193 23.606C100.349 23.87 100.565 24.056 100.841 24.164C101.129 24.272 101.465 24.326 101.849 24.326C102.149 24.326 102.455 24.302 102.767 24.254C103.091 24.194 103.457 24.128 103.865 24.056V25.82C103.469 25.94 103.073 26.03 102.677 26.09C102.281 26.15 101.885 26.18 101.489 26.18ZM116.793 26.18C115.557 26.18 114.537 25.91 113.733 25.37C112.941 24.83 112.353 24.08 111.969 23.12C111.585 22.148 111.393 21.02 111.393 19.736C111.393 18.692 111.519 17.756 111.771 16.928C112.035 16.088 112.413 15.374 112.905 14.786C113.397 14.198 114.003 13.748 114.723 13.436C115.455 13.124 116.295 12.968 117.243 12.968C117.867 12.968 118.425 13.034 118.917 13.166C119.421 13.286 119.913 13.466 120.393 13.706L119.637 15.542C119.217 15.326 118.797 15.17 118.377 15.074C117.969 14.978 117.573 14.93 117.189 14.93C116.565 14.93 116.025 15.038 115.569 15.254C115.125 15.47 114.765 15.788 114.489 16.208C114.213 16.616 114.003 17.114 113.859 17.702C113.727 18.29 113.661 18.95 113.661 19.682C113.661 20.654 113.781 21.482 114.021 22.166C114.261 22.838 114.627 23.348 115.119 23.696C115.623 24.032 116.277 24.2 117.081 24.2C117.501 24.2 117.933 24.152 118.377 24.056C118.833 23.948 119.331 23.774 119.871 23.534V25.568C119.367 25.784 118.857 25.94 118.341 26.036C117.837 26.132 117.321 26.18 116.793 26.18ZM126.578 26.18C125.894 26.18 125.264 26.066 124.688 25.838C124.124 25.61 123.638 25.28 123.23 24.848C122.834 24.416 122.528 23.888 122.312 23.264C122.108 22.64 122.006 21.926 122.006 21.122C122.006 20.054 122.192 19.142 122.564 18.386C122.948 17.63 123.482 17.054 124.166 16.658C124.862 16.262 125.666 16.064 126.578 16.064C127.49 16.064 128.288 16.262 128.972 16.658C129.668 17.042 130.202 17.612 130.574 18.368C130.958 19.112 131.15 20.03 131.15 21.122C131.15 21.914 131.042 22.622 130.826 23.246C130.622 23.87 130.322 24.404 129.926 24.848C129.542 25.28 129.068 25.61 128.504 25.838C127.94 26.066 127.298 26.18 126.578 26.18ZM126.596 24.38C127.124 24.38 127.556 24.248 127.892 23.984C128.228 23.72 128.474 23.342 128.63 22.85C128.798 22.358 128.882 21.782 128.882 21.122C128.882 20.45 128.798 19.874 128.63 19.394C128.474 18.902 128.228 18.524 127.892 18.26C127.556 17.996 127.124 17.864 126.596 17.864C125.804 17.864 125.216 18.158 124.832 18.746C124.448 19.322 124.256 20.114 124.256 21.122C124.256 21.782 124.34 22.358 124.508 22.85C124.688 23.33 124.952 23.708 125.3 23.984C125.648 24.248 126.08 24.38 126.596 24.38ZM132.853 26V24.578L135.553 24.146V18.098L133.267 17.81V16.244H137.281L137.587 17.936H137.695C138.019 17.348 138.403 16.892 138.847 16.568C139.303 16.232 139.885 16.064 140.593 16.064C140.869 16.064 141.163 16.088 141.475 16.136C141.787 16.184 142.093 16.274 142.393 16.406L141.799 18.458C141.619 18.374 141.397 18.302 141.133 18.242C140.881 18.182 140.611 18.152 140.323 18.152C139.783 18.152 139.321 18.29 138.937 18.566C138.565 18.842 138.277 19.214 138.073 19.682C137.881 20.15 137.785 20.666 137.785 21.23V24.146L140.449 24.578V26H132.853ZM148.992 26.18C147.876 26.18 146.928 25.988 146.148 25.604C145.368 25.208 144.768 24.632 144.348 23.876C143.94 23.12 143.736 22.196 143.736 21.104C143.736 20.072 143.916 19.178 144.276 18.422C144.648 17.666 145.182 17.084 145.878 16.676C146.574 16.268 147.396 16.064 148.344 16.064C149.244 16.064 150.006 16.25 150.63 16.622C151.266 16.982 151.752 17.504 152.088 18.188C152.424 18.86 152.592 19.67 152.592 20.618V21.698H145.932C145.956 22.322 146.106 22.832 146.382 23.228C146.658 23.612 147.036 23.894 147.516 24.074C147.996 24.254 148.53 24.344 149.118 24.344C149.61 24.344 150.114 24.284 150.63 24.164C151.146 24.032 151.686 23.852 152.25 23.624V25.478C151.71 25.742 151.164 25.922 150.612 26.018C150.06 26.126 149.52 26.18 148.992 26.18ZM150.522 20.114C150.522 19.622 150.426 19.208 150.234 18.872C150.054 18.524 149.808 18.26 149.496 18.08C149.184 17.888 148.812 17.792 148.38 17.792C147.732 17.792 147.192 17.996 146.76 18.404C146.328 18.812 146.07 19.382 145.986 20.114H150.522ZM163.054 26V15.092H159.418V13.148H168.922V15.092H165.286V26H163.054ZM175.791 26.18C174.675 26.18 173.727 25.988 172.947 25.604C172.167 25.208 171.567 24.632 171.147 23.876C170.739 23.12 170.535 22.196 170.535 21.104C170.535 20.072 170.715 19.178 171.075 18.422C171.447 17.666 171.981 17.084 172.677 16.676C173.373 16.268 174.195 16.064 175.143 16.064C176.043 16.064 176.805 16.25 177.429 16.622C178.065 16.982 178.551 17.504 178.887 18.188C179.223 18.86 179.391 19.67 179.391 20.618V21.698H172.731C172.755 22.322 172.905 22.832 173.181 23.228C173.457 23.612 173.835 23.894 174.315 24.074C174.795 24.254 175.329 24.344 175.917 24.344C176.409 24.344 176.913 24.284 177.429 24.164C177.945 24.032 178.485 23.852 179.049 23.624V25.478C178.509 25.742 177.963 25.922 177.411 26.018C176.859 26.126 176.319 26.18 175.791 26.18ZM177.321 20.114C177.321 19.622 177.225 19.208 177.033 18.872C176.853 18.524 176.607 18.26 176.295 18.08C175.983 17.888 175.611 17.792 175.179 17.792C174.531 17.792 173.991 17.996 173.559 18.404C173.127 18.812 172.869 19.382 172.785 20.114H177.321ZM181.04 26V16.244H182.552L182.822 17.396H182.948C183.08 17.072 183.23 16.814 183.398 16.622C183.566 16.43 183.758 16.292 183.974 16.208C184.202 16.112 184.46 16.064 184.748 16.064C185.264 16.064 185.654 16.196 185.918 16.46C186.194 16.712 186.392 17.09 186.512 17.594H186.584C186.8 17.102 187.058 16.724 187.358 16.46C187.658 16.196 188.066 16.064 188.582 16.064C189.086 16.064 189.476 16.196 189.752 16.46C190.028 16.724 190.22 17.12 190.328 17.648C190.436 18.176 190.49 18.842 190.49 19.646V26H188.546V19.412C188.546 19.1 188.522 18.836 188.474 18.62C188.438 18.392 188.366 18.224 188.258 18.116C188.162 17.996 188 17.936 187.772 17.936C187.532 17.936 187.334 18.02 187.178 18.188C187.034 18.344 186.926 18.59 186.854 18.926C186.782 19.262 186.746 19.694 186.746 20.222V26H184.784V19.412C184.784 19.1 184.76 18.836 184.712 18.62C184.676 18.392 184.598 18.224 184.478 18.116C184.358 17.996 184.184 17.936 183.956 17.936C183.716 17.936 183.518 18.02 183.362 18.188C183.218 18.356 183.116 18.608 183.056 18.944C183.008 19.28 182.984 19.706 182.984 20.222V26H181.04ZM192.301 30.32V16.244H194.047L194.407 17.54H194.497C194.713 17.216 194.959 16.946 195.235 16.73C195.523 16.514 195.847 16.352 196.207 16.244C196.567 16.124 196.963 16.064 197.395 16.064C198.019 16.064 198.559 16.184 199.015 16.424C199.483 16.664 199.873 17.012 200.185 17.468C200.497 17.912 200.731 18.44 200.887 19.052C201.043 19.664 201.121 20.348 201.121 21.104C201.121 22.184 200.965 23.108 200.653 23.876C200.353 24.632 199.921 25.208 199.357 25.604C198.793 25.988 198.121 26.18 197.341 26.18C196.945 26.18 196.567 26.126 196.207 26.018C195.847 25.91 195.523 25.76 195.235 25.568C194.959 25.364 194.713 25.13 194.497 24.866H194.389C194.437 25.202 194.467 25.49 194.479 25.73C194.491 25.97 194.497 26.156 194.497 26.288V30.32H192.301ZM196.711 24.344C197.443 24.344 197.977 24.08 198.313 23.552C198.649 23.024 198.817 22.196 198.817 21.068C198.817 20.012 198.649 19.22 198.313 18.692C197.977 18.164 197.437 17.9 196.693 17.9C195.973 17.9 195.427 18.152 195.055 18.656C194.683 19.148 194.497 19.856 194.497 20.78V21.086C194.497 22.154 194.677 22.964 195.037 23.516C195.397 24.068 195.955 24.344 196.711 24.344ZM203.166 26V24.578L206.514 24.146V14.174L203.598 13.742V12.32H208.746V24.146L211.77 24.578V26H203.166ZM216.911 26.18C215.903 26.18 215.129 25.922 214.589 25.406C214.049 24.89 213.779 24.164 213.779 23.228C213.779 22.508 213.935 21.92 214.247 21.464C214.571 20.996 215.045 20.648 215.669 20.42C216.305 20.18 217.073 20.048 217.973 20.024L220.097 19.97V19.556C220.097 18.944 219.911 18.512 219.539 18.26C219.179 17.996 218.657 17.864 217.973 17.864C217.517 17.864 217.049 17.918 216.569 18.026C216.101 18.134 215.621 18.296 215.129 18.512L214.391 16.91C214.919 16.646 215.483 16.442 216.083 16.298C216.695 16.142 217.355 16.064 218.063 16.064C219.383 16.064 220.403 16.346 221.123 16.91C221.843 17.462 222.203 18.32 222.203 19.484V26H220.475L220.151 24.722H220.079C219.791 25.07 219.479 25.352 219.143 25.568C218.819 25.772 218.471 25.922 218.099 26.018C217.727 26.126 217.331 26.18 216.911 26.18ZM217.577 24.398C218.033 24.398 218.453 24.314 218.837 24.146C219.221 23.978 219.527 23.732 219.755 23.408C219.983 23.084 220.097 22.688 220.097 22.22V21.392L218.513 21.428C217.925 21.44 217.439 21.512 217.055 21.644C216.671 21.776 216.383 21.962 216.191 22.202C216.011 22.43 215.921 22.718 215.921 23.066C215.921 23.546 216.077 23.888 216.389 24.092C216.701 24.296 217.097 24.398 217.577 24.398ZM230.637 26.18C229.857 26.18 229.185 26.072 228.621 25.856C228.069 25.628 227.643 25.268 227.343 24.776C227.043 24.272 226.893 23.606 226.893 22.778V18.098H224.499V16.658L227.019 16.226L227.415 13.742H229.125V16.244H232.851V18.098H229.125V22.508C229.125 22.976 229.197 23.342 229.341 23.606C229.497 23.87 229.713 24.056 229.989 24.164C230.277 24.272 230.613 24.326 230.997 24.326C231.297 24.326 231.603 24.302 231.915 24.254C232.239 24.194 232.605 24.128 233.013 24.056V25.82C232.617 25.94 232.221 26.03 231.825 26.09C231.429 26.15 231.033 26.18 230.637 26.18ZM240.548 26.18C239.432 26.18 238.484 25.988 237.704 25.604C236.924 25.208 236.324 24.632 235.904 23.876C235.496 23.12 235.292 22.196 235.292 21.104C235.292 20.072 235.472 19.178 235.832 18.422C236.204 17.666 236.738 17.084 237.434 16.676C238.13 16.268 238.952 16.064 239.9 16.064C240.8 16.064 241.562 16.25 242.186 16.622C242.822 16.982 243.308 17.504 243.644 18.188C243.98 18.86 244.148 19.67 244.148 20.618V21.698H237.488C237.512 22.322 237.662 22.832 237.938 23.228C238.214 23.612 238.592 23.894 239.072 24.074C239.552 24.254 240.086 24.344 240.674 24.344C241.166 24.344 241.67 24.284 242.186 24.164C242.702 24.032 243.242 23.852 243.806 23.624V25.478C243.266 25.742 242.72 25.922 242.168 26.018C241.616 26.126 241.076 26.18 240.548 26.18ZM242.078 20.114C242.078 19.622 241.982 19.208 241.79 18.872C241.61 18.524 241.364 18.26 241.052 18.08C240.74 17.888 240.368 17.792 239.936 17.792C239.288 17.792 238.748 17.996 238.316 18.404C237.884 18.812 237.626 19.382 237.542 20.114H242.078Z" fill="white"/>
<path d="M66.14 42.12C65.732 42.12 65.36 42.04 65.024 41.88C64.696 41.72 64.428 41.508 64.22 41.244H64.124L63.92 42H62.768V32.88H64.232V35.04C64.232 35.2 64.224 35.392 64.208 35.616C64.2 35.832 64.184 36.072 64.16 36.336H64.232C64.424 36.04 64.684 35.808 65.012 35.64C65.348 35.464 65.728 35.376 66.152 35.376C66.568 35.376 66.932 35.456 67.244 35.616C67.556 35.776 67.816 36.008 68.024 36.312C68.232 36.608 68.388 36.96 68.492 37.368C68.596 37.776 68.648 38.228 68.648 38.724C68.648 39.236 68.592 39.7 68.48 40.116C68.376 40.532 68.216 40.888 68 41.184C67.792 41.48 67.532 41.712 67.22 41.88C66.908 42.04 66.548 42.12 66.14 42.12ZM65.696 40.896C66.176 40.896 66.536 40.712 66.776 40.344C67.016 39.968 67.136 39.428 67.136 38.724C67.136 38.012 67.016 37.48 66.776 37.128C66.536 36.776 66.172 36.6 65.684 36.6C65.236 36.6 64.88 36.768 64.616 37.104C64.36 37.44 64.232 37.976 64.232 38.712C64.232 39.44 64.356 39.988 64.604 40.356C64.852 40.716 65.216 40.896 65.696 40.896ZM70.8033 44.94C70.6513 44.94 70.4993 44.932 70.3473 44.916C70.2033 44.9 70.0633 44.876 69.9273 44.844V43.608C70.0313 43.624 70.1433 43.64 70.2633 43.656C70.3833 43.672 70.4913 43.68 70.5873 43.68C70.8353 43.68 71.0433 43.636 71.2113 43.548C71.3873 43.46 71.5353 43.332 71.6553 43.164C71.7833 42.996 71.8913 42.784 71.9793 42.528L72.1713 41.988L69.5433 35.496H71.1273L72.4953 39.264C72.5673 39.456 72.6353 39.668 72.6993 39.9C72.7633 40.132 72.8233 40.372 72.8793 40.62H72.9153C72.9473 40.452 72.9833 40.292 73.0233 40.14C73.0633 39.988 73.1073 39.84 73.1553 39.696C73.2033 39.544 73.2473 39.4 73.2873 39.264L74.4513 35.496H76.0353L73.4553 42.528C73.2633 43.056 73.0473 43.5 72.8073 43.86C72.5753 44.22 72.2993 44.488 71.9793 44.664C71.6593 44.848 71.2673 44.94 70.8033 44.94ZM86.7779 44.94C86.4019 44.94 86.0259 44.904 85.6499 44.832C85.2739 44.768 84.9059 44.668 84.5459 44.532V43.152C84.9139 43.328 85.2979 43.46 85.6979 43.548C86.1059 43.636 86.4859 43.676 86.8379 43.668C87.4539 43.668 87.8899 43.536 88.1459 43.272C88.4099 43.016 88.5419 42.632 88.5419 42.12V41.952C88.5419 41.832 88.5459 41.716 88.5539 41.604C88.5619 41.484 88.5739 41.356 88.5899 41.22H88.5419C88.3179 41.54 88.0539 41.772 87.7499 41.916C87.4459 42.052 87.0979 42.12 86.7059 42.12C85.8979 42.12 85.2659 41.824 84.8099 41.232C84.3619 40.64 84.1379 39.816 84.1379 38.76C84.1379 37.696 84.3619 36.864 84.8099 36.264C85.2579 35.664 85.8779 35.364 86.6699 35.364C87.0779 35.364 87.4339 35.444 87.7379 35.604C88.0419 35.756 88.3059 35.992 88.5299 36.312H88.5899L88.8659 35.496H90.0179V42.072C90.0179 42.688 89.8979 43.208 89.6579 43.632C89.4259 44.064 89.0699 44.388 88.5899 44.604C88.1179 44.828 87.5139 44.94 86.7779 44.94ZM87.1739 40.896C87.4219 40.896 87.6339 40.856 87.8099 40.776C87.9939 40.688 88.1459 40.564 88.2659 40.404C88.3859 40.244 88.4739 40.048 88.5299 39.816C88.5939 39.576 88.6259 39.304 88.6259 39V38.772C88.6259 38.252 88.5699 37.836 88.4579 37.524C88.3539 37.204 88.1899 36.972 87.9659 36.828C87.7419 36.676 87.4659 36.6 87.1379 36.6C86.6179 36.6 86.2379 36.788 85.9979 37.164C85.7659 37.532 85.6499 38.06 85.6499 38.748C85.6499 39.444 85.7739 39.976 86.0219 40.344C86.2699 40.712 86.6539 40.896 87.1739 40.896ZM91.5973 42V41.052L93.8173 40.764V36.732L91.8613 36.54V35.496H95.3053V40.764L97.3333 41.052V42H91.5973ZM94.5253 34.596C94.2293 34.596 93.9973 34.52 93.8293 34.368C93.6693 34.208 93.5893 33.976 93.5893 33.672C93.5893 33.376 93.6693 33.152 93.8293 33C93.9973 32.84 94.2333 32.76 94.5373 32.76C94.8333 32.76 95.0653 32.836 95.2333 32.988C95.4013 33.14 95.4853 33.368 95.4853 33.672C95.4853 33.968 95.4013 34.196 95.2333 34.356C95.0653 34.516 94.8293 34.596 94.5253 34.596ZM100.761 42.12C100.089 42.12 99.5726 41.948 99.2126 41.604C98.8526 41.26 98.6726 40.776 98.6726 40.152C98.6726 39.672 98.7766 39.28 98.9846 38.976C99.2006 38.664 99.5166 38.432 99.9326 38.28C100.357 38.12 100.869 38.032 101.469 38.016L102.885 37.98V37.704C102.885 37.296 102.761 37.008 102.513 36.84C102.273 36.664 101.925 36.576 101.469 36.576C101.165 36.576 100.853 36.612 100.533 36.684C100.221 36.756 99.9006 36.864 99.5726 37.008L99.0806 35.94C99.4326 35.764 99.8086 35.628 100.209 35.532C100.617 35.428 101.057 35.376 101.529 35.376C102.409 35.376 103.089 35.564 103.569 35.94C104.049 36.308 104.289 36.88 104.289 37.656V42H103.137L102.921 41.148H102.873C102.681 41.38 102.473 41.568 102.249 41.712C102.033 41.848 101.801 41.948 101.553 42.012C101.305 42.084 101.041 42.12 100.761 42.12ZM101.205 40.932C101.509 40.932 101.789 40.876 102.045 40.764C102.301 40.652 102.505 40.488 102.657 40.272C102.809 40.056 102.885 39.792 102.885 39.48V38.928L101.829 38.952C101.437 38.96 101.113 39.008 100.857 39.096C100.601 39.184 100.409 39.308 100.281 39.468C100.161 39.62 100.101 39.812 100.101 40.044C100.101 40.364 100.205 40.592 100.413 40.728C100.621 40.864 100.885 40.932 101.205 40.932ZM105.94 42V35.496H107.092L107.332 36.372H107.416C107.544 36.148 107.708 35.964 107.908 35.82C108.108 35.668 108.336 35.556 108.592 35.484C108.848 35.412 109.132 35.376 109.444 35.376C110.14 35.376 110.684 35.572 111.076 35.964C111.468 36.356 111.664 36.94 111.664 37.716V42H110.164V38.064C110.164 37.56 110.064 37.192 109.864 36.96C109.664 36.72 109.36 36.6 108.952 36.6C108.408 36.6 108.02 36.8 107.788 37.2C107.556 37.592 107.44 38.136 107.44 38.832V42H105.94ZM113.135 42V35.496H114.287L114.527 36.372H114.611C114.739 36.148 114.903 35.964 115.103 35.82C115.303 35.668 115.531 35.556 115.787 35.484C116.043 35.412 116.327 35.376 116.639 35.376C117.335 35.376 117.879 35.572 118.271 35.964C118.663 36.356 118.859 36.94 118.859 37.716V42H117.359V38.064C117.359 37.56 117.259 37.192 117.059 36.96C116.859 36.72 116.555 36.6 116.147 36.6C115.603 36.6 115.215 36.8 114.983 37.2C114.751 37.592 114.635 38.136 114.635 38.832V42H113.135ZM120.379 42V41.052L122.599 40.764V36.732L120.643 36.54V35.496H124.087V40.764L126.115 41.052V42H120.379ZM123.307 34.596C123.011 34.596 122.779 34.52 122.611 34.368C122.451 34.208 122.371 33.976 122.371 33.672C122.371 33.376 122.451 33.152 122.611 33C122.779 32.84 123.015 32.76 123.319 32.76C123.615 32.76 123.847 32.836 124.015 32.988C124.183 33.14 124.267 33.368 124.267 33.672C124.267 33.968 124.183 34.196 124.015 34.356C123.847 34.516 123.611 34.596 123.307 34.596ZM130.058 42.12C129.658 42.12 129.27 42.088 128.894 42.024C128.526 41.96 128.17 41.86 127.826 41.724V40.344C128.146 40.488 128.506 40.616 128.906 40.728C129.306 40.832 129.738 40.884 130.202 40.884C130.594 40.884 130.886 40.828 131.078 40.716C131.27 40.604 131.366 40.436 131.366 40.212C131.366 40.052 131.314 39.924 131.21 39.828C131.106 39.732 130.942 39.636 130.718 39.54C130.494 39.436 130.198 39.312 129.83 39.168C129.446 39.008 129.11 38.848 128.822 38.688C128.534 38.528 128.306 38.336 128.138 38.112C127.978 37.88 127.898 37.58 127.898 37.212C127.898 36.788 128.006 36.44 128.222 36.168C128.438 35.896 128.742 35.696 129.134 35.568C129.526 35.44 129.982 35.376 130.502 35.376C130.902 35.376 131.294 35.416 131.678 35.496C132.07 35.568 132.458 35.684 132.842 35.844L132.386 36.996C132.034 36.86 131.702 36.76 131.39 36.696C131.086 36.632 130.778 36.6 130.466 36.6C130.114 36.6 129.846 36.644 129.662 36.732C129.486 36.82 129.398 36.964 129.398 37.164C129.398 37.324 129.45 37.456 129.554 37.56C129.666 37.664 129.83 37.76 130.046 37.848C130.27 37.936 130.55 38.044 130.886 38.172C131.27 38.324 131.61 38.48 131.906 38.64C132.21 38.792 132.45 38.988 132.626 39.228C132.802 39.468 132.89 39.796 132.89 40.212C132.89 40.644 132.782 41 132.566 41.28C132.35 41.56 132.03 41.772 131.606 41.916C131.19 42.052 130.674 42.12 130.058 42.12ZM134.541 42V41.052L136.341 40.764V36.732L134.817 36.54V35.496H137.493L137.697 36.624H137.769C137.985 36.232 138.241 35.928 138.537 35.712C138.841 35.488 139.229 35.376 139.701 35.376C139.885 35.376 140.081 35.392 140.289 35.424C140.497 35.456 140.701 35.516 140.901 35.604L140.505 36.972C140.385 36.916 140.237 36.868 140.061 36.828C139.893 36.788 139.713 36.768 139.521 36.768C139.161 36.768 138.853 36.86 138.597 37.044C138.349 37.228 138.157 37.476 138.021 37.788C137.893 38.1 137.829 38.444 137.829 38.82V40.764L139.605 41.052V42H134.541ZM141.964 42V41.052L144.184 40.764V36.732L142.228 36.54V35.496H145.672V40.764L147.7 41.052V42H141.964ZM144.892 34.596C144.596 34.596 144.364 34.52 144.196 34.368C144.036 34.208 143.956 33.976 143.956 33.672C143.956 33.376 144.036 33.152 144.196 33C144.364 32.84 144.6 32.76 144.904 32.76C145.2 32.76 145.432 32.836 145.6 32.988C145.768 33.14 145.852 33.368 145.852 33.672C145.852 33.968 145.768 34.196 145.6 34.356C145.432 34.516 145.196 34.596 144.892 34.596ZM151.536 44.94C151.16 44.94 150.784 44.904 150.408 44.832C150.032 44.768 149.664 44.668 149.304 44.532V43.152C149.672 43.328 150.056 43.46 150.456 43.548C150.864 43.636 151.244 43.676 151.596 43.668C152.212 43.668 152.648 43.536 152.904 43.272C153.168 43.016 153.3 42.632 153.3 42.12V41.952C153.3 41.832 153.304 41.716 153.312 41.604C153.32 41.484 153.332 41.356 153.348 41.22H153.3C153.076 41.54 152.812 41.772 152.508 41.916C152.204 42.052 151.856 42.12 151.464 42.12C150.656 42.12 150.024 41.824 149.568 41.232C149.12 40.64 148.896 39.816 148.896 38.76C148.896 37.696 149.12 36.864 149.568 36.264C150.016 35.664 150.636 35.364 151.428 35.364C151.836 35.364 152.192 35.444 152.496 35.604C152.8 35.756 153.064 35.992 153.288 36.312H153.348L153.624 35.496H154.776V42.072C154.776 42.688 154.656 43.208 154.416 43.632C154.184 44.064 153.828 44.388 153.348 44.604C152.876 44.828 152.272 44.94 151.536 44.94ZM151.932 40.896C152.18 40.896 152.392 40.856 152.568 40.776C152.752 40.688 152.904 40.564 153.024 40.404C153.144 40.244 153.232 40.048 153.288 39.816C153.352 39.576 153.384 39.304 153.384 39V38.772C153.384 38.252 153.328 37.836 153.216 37.524C153.112 37.204 152.948 36.972 152.724 36.828C152.5 36.676 152.224 36.6 151.896 36.6C151.376 36.6 150.996 36.788 150.756 37.164C150.524 37.532 150.408 38.06 150.408 38.748C150.408 39.444 150.532 39.976 150.78 40.344C151.028 40.712 151.412 40.896 151.932 40.896Z" fill="white"/>
<defs>
<clipPath id="clip0_321_141">
<rect width="50" height="50" fill="white"/>
</clipPath>
</defs>
</svg>
